<svg height="512" viewBox="0 0 256 256" width="512" xmlns="http://www.w3.org/2000/svg"><path d="m184.31 195.143-10.9-19.16-1.83-3.22a4.109 4.109 0 0 1 .1-4.3c31.1-47.121-5.231-109.59-61.46-106.2a68.609 68.609 0 1 0 41.81 125.83 4.113 4.113 0 0 1 4.3-.17l22.44 12.76a4.063 4.063 0 0 0 5.54-5.54z" fill="#72c1e8"/><path d="m59.521 155.392c-.426-.947-.832-1.919-1.208-2.888a2.5 2.5 0 1 1 4.662-1.807c.344.888.716 1.778 1.106 2.647a2.5 2.5 0 0 1 -4.56 2.048zm-4.121-12.892a60.594 60.594 0 0 1 -1.091-14.611 2.5 2.5 0 0 1 4.995.232 55.5 55.5 0 0 0 1 13.405 2.5 2.5 0 0 1 -4.9.974z" fill="#c5e5ff"/><path d="m112.553 150.027a7.09 7.09 0 0 1 -7.081-7.081v-3.729a23.394 23.394 0 0 1 11.858-20.069c6.028-3.483 7.525-10.095 4.586-15.091a10.8 10.8 0 0 0 -17.452-1.869 7.087 7.087 0 1 1 -10.675-9.322 25 25 0 1 1 30.811 38.434 9.2 9.2 0 0 0 -4.97 7.913v3.729a7.089 7.089 0 0 1 -7.077 7.085z" fill="#f0c020"/><circle cx="112.703" cy="169.784" fill="#f0c020" r="7.982"/><path d="m57.3 197.034-21.282-3.681a2.045 2.045 0 0 0 -1.8.569l-29.366 29.371a2.046 2.046 0 0 0 1.1 3.464l18.438 3.19a2.045 2.045 0 0 1 1.668 1.668l3.19 18.438a2.046 2.046 0 0 0 3.463 1.1l29.37-29.373a2.045 2.045 0 0 0 .569-1.8l-3.681-21.28a2.048 2.048 0 0 0 -1.669-1.666z" fill="#fc5d3d"/><path d="m248.985 4.386-34.385 12.805a2.046 2.046 0 0 0 .063 3.858l14.232 4.773a2.045 2.045 0 0 1 1.29 1.289l4.773 14.233a2.046 2.046 0 0 0 3.858.063l12.8-34.389a2.047 2.047 0 0 0 -2.631-2.632z" fill="#fc5d3d"/><path d="m208.12 182.883-21.35-12.15a3.894 3.894 0 0 0 -4.09.18q-1.68 1.11-3.42 2.1a61.785 61.785 0 0 1 -5.85 2.97l-1.83-3.22a4.109 4.109 0 0 1 .1-4.3c31.1-47.121-5.231-109.59-61.46-106.2a65 65 0 0 1 16.9-8.19c58.332-18.442 108.089 46.881 74.26 98.15a3.932 3.932 0 0 0 -.1 4.09l12.12 21.3a3.869 3.869 0 0 1 -5.28 5.27z" fill="#f0c020"/><path d="m179.26 173.013a61.785 61.785 0 0 1 -5.85 2.97l-1.83-3.22a4.109 4.109 0 0 1 .1-4.3c31.1-47.121-5.231-109.59-61.46-106.2a65 65 0 0 1 16.9-8.19c54.811 9.158 82.832 72.013 52.14 118.94z" fill="#f0ab20"/><path d="m198.784 131.406a2.5 2.5 0 0 1 -1.85-3.013c.086-.361.168-.721.246-1.084a2.5 2.5 0 1 1 4.887 1.056c-.085.4-.176.794-.27 1.19a2.5 2.5 0 0 1 -3.013 1.851zm1.965-10.984a2.5 2.5 0 0 1 -2.429-2.569 51.478 51.478 0 0 0 -27.22-47.031 2.5 2.5 0 1 1 2.358-4.409 56.461 56.461 0 0 1 29.863 51.58 2.5 2.5 0 0 1 -2.572 2.429z" fill="#f9e5af"/><path d="m168.524 141.592a2.5 2.5 0 0 1 -2.024-2.9q.132-.746.242-1.494a2.5 2.5 0 0 1 4.947.725q-.121.822-.266 1.644a2.5 2.5 0 0 1 -2.899 2.025zm-1.289-13.9a50.876 50.876 0 0 0 -22.448-40.041 2.5 2.5 0 1 1 2.78-4.156 55.894 55.894 0 0 1 24.664 43.989 2.5 2.5 0 1 1 -5 .208z" fill="#c5e5ff"/><path d="m211.86 122.793a2.528 2.528 0 0 0 -2.82 2.13 2.5 2.5 0 1 0 2.82-2.13z"/><path d="m49.64 107.883a2.5 2.5 0 1 0 -1.41-3.241 2.5 2.5 0 0 0 1.41 3.241z"/><path d="m125.809 133.493a27.5 27.5 0 1 0 -33.9-42.275 9.587 9.587 0 1 0 14.423 12.632 8.291 8.291 0 0 1 13.429 1.474c2.284 3.882 1.052 8.924-3.682 11.66a25.9 25.9 0 0 0 -13.107 22.233v3.73a9.581 9.581 0 0 0 19.161 0v-3.73a6.713 6.713 0 0 1 3.676-5.724zm-8.676 5.724v3.73a4.581 4.581 0 0 1 -9.161 0v-3.73a20.885 20.885 0 0 1 10.609-17.9c7.2-4.16 9.152-12.3 5.489-18.524a13.3 13.3 0 0 0 -21.474-2.262 4.587 4.587 0 1 1 -6.927-6.013 22.34 22.34 0 0 1 17.631-7.592 22.494 22.494 0 0 1 10.1 42.189 11.7 11.7 0 0 0 -6.267 10.102z"/><path d="m112.7 159.3a10.482 10.482 0 1 0 10.482 10.482 10.494 10.494 0 0 0 -10.482-10.482zm0 15.964a5.482 5.482 0 1 1 5.482-5.482 5.488 5.488 0 0 1 -5.482 5.484z"/><path d="m246.42 20.983a2.556 2.556 0 0 0 -3.22 1.469 2.5 2.5 0 1 0 3.22-1.469z"/><path d="m248.1 2.052-34.38 12.791a4.555 4.555 0 0 0 .14 8.58l11.373 3.812-36.107 36.107a67.75 67.75 0 0 0 -79.735-3.522 71.259 71.259 0 0 0 -56.691 35.48 2.5 2.5 0 0 0 .93 3.411 2.571 2.571 0 0 0 3.41-.931 66.175 66.175 0 0 1 53.33-33.02c54.671-3.341 88.886 57.405 59.22 102.321a6.626 6.626 0 0 0 -.18 6.929l12.73 22.371a1.561 1.561 0 0 1 -2.13 2.129l-22.44-12.759a6.7 6.7 0 0 0 -6.91.25 66.118 66.118 0 0 1 -75.279-1.847l7.178-7.177c1.052.729 2.119 1.435 3.214 2.086a2.5 2.5 0 0 0 2.557-4.3 51.442 51.442 0 0 1 -8.988-6.8 2.5 2.5 0 0 0 -3.434 3.635c.853.805 1.735 1.576 2.633 2.325l-7.086 7.085a68.327 68.327 0 0 1 -6.225-6.049 66.244 66.244 0 0 1 -15.2-59.3 2.5 2.5 0 0 0 -1.87-3 2.529 2.529 0 0 0 -3 1.87 71.282 71.282 0 0 0 16.35 63.781 72.977 72.977 0 0 0 6.4 6.243l-10.048 10.052c-.046-.009-.089-.026-.135-.034l-21.283-3.682a4.553 4.553 0 0 0 -3.989 1.266l-29.371 29.371a4.548 4.548 0 0 0 2.44 7.694l18.123 3.136 3.135 18.123a4.549 4.549 0 0 0 7.695 2.44l29.371-29.371a4.55 4.55 0 0 0 1.265-3.99l-3.681-21.282c-.008-.047-.025-.09-.035-.135l10.429-10.429a71.065 71.065 0 0 0 81.574 2.47 1.6 1.6 0 0 1 1.69-.089l22.44 12.76a6.564 6.564 0 0 0 8.95-8.941l-9.566-16.825a64.439 64.439 0 0 0 7.146-4.087 1.362 1.362 0 0 1 1.47-.1l21.35 12.149a6.372 6.372 0 0 0 8.69-8.68l-12.12-21.3a1.42 1.42 0 0 1 .02-1.48 67.278 67.278 0 0 0 8.33-17.851 2.5 2.5 0 0 0 -1.68-3.109 2.54 2.54 0 0 0 -3.11 1.68c-.01 0-.01 0-.01.01a62.276 62.276 0 0 1 -7.71 16.52 6.4 6.4 0 0 0 -.18 6.7l12.12 21.31a1.37 1.37 0 0 1 -1.88 1.86l-21.34-12.15a6.5 6.5 0 0 0 -6.72.27q-1.6 1.065-3.27 2.01c-1.169.669-2.368 1.308-3.577 1.9l-.693-1.218a1.586 1.586 0 0 1 .02-1.68c29.66-44.956.187-106.113-54.33-110.03 41.663-20.141 89.459 10 90.18 55.52a2.5 2.5 0 1 0 5-.08 67.344 67.344 0 0 0 -21.7-48.637l35.848-35.844 3.812 11.372a4.546 4.546 0 0 0 8.57.14l3.25-8.709a2.51 2.51 0 0 0 -1.47-3.22 2.557 2.557 0 0 0 -3.22 1.47l-2.79 7.51-4.37-13.02a4.617 4.617 0 0 0 -2.86-2.861l-13.02-4.369 32.26-12.01-2.24 6.01a2.509 2.509 0 0 0 1.47 3.219 2.556 2.556 0 0 0 3.22-1.469l2.58-6.941a4.548 4.548 0 0 0 -5.86-5.84zm-212.276 193.804 17.722 3.066-6.926 6.926-17.72-3.066zm6.492 42.153-3.065-17.722 6.578-6.578 3.071 17.721zm-17.743-30.9 17.721 3.066-6.578 6.578-17.722-3.066zm-10.9 10.9 17.722 3.066-6.44 6.44c-.548-.112-17.161-2.98-17.712-3.075zm17.887 30.756c-.095-.551-2.963-17.164-3.075-17.712l6.44-6.44 3.066 17.722zm21.661-21.665-3.066-17.721 6.926-6.926 3.066 17.721z"/></svg>